<?xml version="1.0" standalone="no"?>
<!DOCTYPE svg PUBLIC "-//W3C//DTD SVG 20010904//EN"
 "http://www.w3.org/TR/2001/REC-SVG-20010904/DTD/svg10.dtd">
<svg version="1.0" xmlns="http://www.w3.org/2000/svg"
 width="300.000000pt" height="300.000000pt" viewBox="0 0 300.000000 300.000000"
 preserveAspectRatio="xMidYMid meet">
<metadata>
Created by potrace 1.11, written by Peter Selinger 2001-2013
</metadata>
<g transform="translate(0.000000,300.000000) scale(0.100000,-0.100000)"
fill="#000000" stroke="none">
<path d="M2699 2486 c-2 -2 -35 -6 -74 -10 -299 -28 -557 -125 -580 -219 -16
-65 15 -103 116 -140 63 -24 83 -62 77 -146 -7 -92 -18 -99 -109 -63 -182 73
-347 73 -506 2 -84 -38 -140 -78 -216 -155 l-64 -64 -38 45 c-73 88 -211 174
-327 202 -172 43 -362 29 -522 -39 -199 -85 -357 -254 -424 -456 -22 -68 -26
-95 -26 -213 0 -119 3 -145 27 -220 14 -47 43 -114 64 -150 48 -83 160 -196
240 -243 55 -32 203 -92 203 -83 0 2 23 -2 51 -9 121 -32 353 -7 494 54 101
44 167 84 216 132 l57 55 49 -51 c157 -169 360 -238 551 -188 68 18 116 42
201 100 84 57 102 55 119 -17 23 -92 25 -93 179 -86 72 3 138 8 145 11 7 2 31
7 53 10 151 22 284 78 323 135 19 28 23 44 19 80 -4 39 -12 51 -60 95 -30 27
-61 61 -68 75 -11 20 -13 173 -14 740 -1 393 -5 730 -9 747 -10 45 -49 73
-101 73 -23 0 -44 -2 -46 -4z m-1869 -791 c74 -38 116 -161 72 -215 -19 -24
-26 -25 -141 -28 -119 -4 -121 -3 -147 23 -23 23 -25 32 -20 67 7 44 29 91 55
119 44 47 125 63 181 34z m1325 -55 c63 -39 89 -138 89 -345 0 -227 -22 -331
-85 -397 -33 -35 -40 -38 -92 -38 -49 0 -61 4 -92 32 -72 62 -107 174 -104
329 4 225 58 374 154 427 32 18 95 14 130 -8z m-961 -470 c3 -8 7 -33 11 -55
3 -22 10 -55 16 -72 6 -18 8 -37 4 -43 -9 -15 -134 -76 -182 -89 -116 -31
-218 -17 -310 44 -97 64 -151 170 -112 220 5 6 111 10 288 10 243 0 282 -2
285 -15z"/>
</g>
</svg>
